<svg id="Calque_1" data-name="Calque 1" xmlns="http://www.w3.org/2000/svg" viewBox="0 0 100 100"><defs><style>.cls-1{fill:#3a3938;}</style></defs><title>Plan de travail 1</title><path class="cls-1" d="M89,44.33V11.23h-11V33.29h-11v-11H33.79v11h-11V11.23h-11v33.1H.69v33.1h11v11h11v11H77.93v-11H89v-11h11V44.33ZM55.86,66.4v11h-11v-11h-11v-11h11v11h11v-11h11v11Z"/><polygon class="cls-1" points="44.83 11.23 55.86 11.23 66.9 11.23 77.93 11.23 77.93 0.19 66.9 0.19 55.86 0.19 44.83 0.19 33.79 0.19 22.76 0.19 22.76 11.23 33.79 11.23 44.83 11.23"/></svg>