<svg id="Calque_1" data-name="Calque 1" xmlns="http://www.w3.org/2000/svg" viewBox="0 0 100 100"><defs><style>.cls-1{fill:#3a3938;}</style></defs><title>Plan de travail 10 copie 14</title><rect class="cls-1" x="88.92" y="0.59" width="11.08" height="11.08"/><path class="cls-1" d="M77.84,11.67V22.75H66.77V11.67H55.69V22.75H44.61V11.67H33.54V22.75H22.46V11.67H11.39V22.75H.31v77.54H88.92V89.21H100V22.75H88.92V11.67ZM88.92,44.9V78.13H77.84V89.21H11.39V33.82H88.92Z"/><rect class="cls-1" x="66.77" y="0.59" width="11.08" height="11.08"/><rect class="cls-1" x="66.77" y="44.9" width="11.08" height="11.08"/><rect class="cls-1" x="66.77" y="67.05" width="11.08" height="11.08"/><rect class="cls-1" x="44.61" y="0.59" width="11.08" height="11.08"/><rect class="cls-1" x="44.61" y="44.9" width="11.08" height="11.08"/><rect class="cls-1" x="44.61" y="67.05" width="11.08" height="11.08"/><rect class="cls-1" x="22.46" y="0.59" width="11.07" height="11.08"/><rect class="cls-1" x="22.46" y="44.9" width="11.07" height="11.08"/><rect class="cls-1" x="22.46" y="67.05" width="11.07" height="11.08"/><rect class="cls-1" x="0.31" y="0.59" width="11.08" height="11.08"/></svg>