<svg id="Calque_1" data-name="Calque 1" xmlns="http://www.w3.org/2000/svg" viewBox="0 0 100 100"><defs><style>.cls-1{fill:#3a3938;}</style></defs><title>Plan de travail 8</title><polygon class="cls-1" points="61.44 33.19 61.44 44.25 61.44 55.32 72.5 55.32 72.5 44.25 72.5 33.19 72.5 22.13 72.5 11.06 61.44 11.06 61.44 22.13 61.44 33.19"/><polygon class="cls-1" points="50.37 11.06 61.44 11.06 61.44 0 50.37 0 39.31 0 28.25 0 28.25 11.06 39.31 11.06 50.37 11.06"/><polygon class="cls-1" points="72.5 66.38 72.5 77.45 72.5 88.51 83.57 88.51 83.57 77.45 83.57 66.38 72.5 66.38"/><polygon class="cls-1" points="50.37 88.51 39.31 88.51 28.25 88.51 28.25 99.57 39.31 99.57 50.37 99.57 61.44 99.57 72.5 99.57 72.5 88.51 61.44 88.51 50.37 88.51"/><polygon class="cls-1" points="50.37 44.25 50.37 33.19 50.37 22.13 39.31 22.13 39.31 33.19 39.31 44.25 39.31 55.32 39.31 66.38 50.37 66.38 61.44 66.38 61.44 55.32 50.37 55.32 50.37 44.25"/><polygon class="cls-1" points="28.25 66.38 28.25 55.32 28.25 44.25 28.25 33.19 28.25 22.13 28.25 11.06 17.18 11.06 17.18 22.13 17.18 33.19 17.18 44.25 17.18 55.32 17.18 66.38 17.18 77.45 17.18 88.51 28.25 88.51 28.25 77.45 28.25 66.38"/></svg>