<svg id="Calque_1" data-name="Calque 1" xmlns="http://www.w3.org/2000/svg" viewBox="0 0 100 100"><defs><style>.cls-1{fill:#3a3938;}</style></defs><title>Plan de travail 10 copie 13</title><polygon class="cls-1" points="89.6 23.56 89.6 34.62 89.6 45.68 89.6 56.75 89.6 67.81 89.6 78.87 100.67 78.87 100.67 67.81 100.67 56.75 100.67 45.68 100.67 34.62 100.67 23.56 89.6 23.56"/><rect class="cls-1" x="78.54" y="12.5" width="11.06" height="11.06"/><rect class="cls-1" x="78.54" y="78.87" width="11.06" height="11.06"/><polygon class="cls-1" points="56.42 89.93 45.35 89.93 34.29 89.93 23.23 89.93 23.23 101 34.29 101 45.35 101 56.42 101 67.48 101 78.54 101 78.54 89.93 67.48 89.93 56.42 89.93"/><polygon class="cls-1" points="45.35 34.62 45.35 45.68 45.35 56.75 56.42 56.75 56.42 45.68 56.42 34.62 56.42 23.56 45.35 23.56 45.35 34.62"/><rect class="cls-1" x="45.35" y="67.81" width="11.06" height="11.06"/><polygon class="cls-1" points="45.35 12.5 56.42 12.5 67.48 12.5 78.54 12.5 78.54 1.43 67.48 1.43 56.42 1.43 45.35 1.43 34.29 1.43 23.23 1.43 23.23 12.5 34.29 12.5 45.35 12.5"/><rect class="cls-1" x="12.17" y="12.5" width="11.06" height="11.06"/><rect class="cls-1" x="12.17" y="78.87" width="11.06" height="11.06"/><polygon class="cls-1" points="12.17 56.75 12.17 45.68 12.17 34.62 12.17 23.56 1.1 23.56 1.1 34.62 1.1 45.68 1.1 56.75 1.1 67.81 1.1 78.87 12.17 78.87 12.17 67.81 12.17 56.75"/></svg>