<svg id="Calque_1" data-name="Calque 1" xmlns="http://www.w3.org/2000/svg" viewBox="0 0 100 100"><defs><style>.cls-1{fill:#3a3938;}</style></defs><title>Plan de travail 10 copie 9</title><polygon class="cls-1" points="88.36 11 88.36 0 77.36 0 66.37 0 55.36 0 44.36 0 33.36 0 22.36 0 11.36 0 11.36 11 0.36 11 0.36 22 0.36 33 0.36 44 0.36 55 0.36 66 0.36 77 0.36 88 11.36 88 11.36 99 22.36 99 33.36 99 44.36 99 55.36 99 66.37 99 77.36 99 88.36 99 88.36 88 77.36 88 66.37 88 55.36 88 44.36 88 33.36 88 22.36 88 22.36 77 11.36 77 11.36 66 11.36 55 11.36 44 11.36 33 11.36 22 22.36 22 22.36 11 33.36 11 44.36 11 55.36 11 66.37 11 77.36 11 77.36 22 88.36 22 88.36 33 88.36 44 88.36 55 88.36 66 77.36 66 77.36 55 77.36 44 77.36 33 66.37 33 66.37 22 55.36 22 44.36 22 33.36 22 33.36 33 22.36 33 22.36 44 22.36 55 22.36 66 33.36 66 33.36 77 44.36 77 55.36 77 55.36 66 44.36 66 44.36 55 33.36 55 33.36 44 44.36 44 44.36 33 55.36 33 55.36 44 66.37 44 66.37 55 55.36 55 55.36 66 66.37 66 66.37 77 77.36 77 88.36 77 99.36 77 99.36 66 99.36 55 99.36 44 99.36 33 99.36 22 99.36 11 88.36 11"/></svg>