<svg id="Calque_1" data-name="Calque 1" xmlns="http://www.w3.org/2000/svg" viewBox="0 0 100 100"><defs><style>.cls-1{fill:#3a3938;}</style></defs><title>Plan de travail 10 copie 16</title><polygon class="cls-1" points="88.91 22.15 88.91 33.22 77.84 33.22 77.84 22.15 66.76 22.15 66.76 33.22 55.69 33.22 55.69 44.3 66.76 44.3 66.76 55.38 77.84 55.38 88.91 55.38 88.91 66.45 88.91 77.53 99.99 77.53 99.99 66.45 99.99 55.38 99.99 44.3 99.99 33.22 99.99 22.15 88.91 22.15"/><rect class="cls-1" x="77.84" y="11.07" width="11.07" height="11.07"/><rect class="cls-1" x="77.84" y="77.53" width="11.07" height="11.08"/><polygon class="cls-1" points="55.69 88.61 44.61 88.61 33.53 88.61 22.46 88.61 22.46 99.68 33.53 99.68 44.61 99.68 55.69 99.68 66.76 99.68 77.84 99.68 77.84 88.61 66.76 88.61 55.69 88.61"/><polygon class="cls-1" points="33.53 22.15 22.46 22.15 22.46 33.22 22.46 44.3 33.53 44.3 33.53 33.22 44.61 33.22 44.61 22.15 44.61 11.07 55.69 11.07 66.76 11.07 77.84 11.07 77.84 0 66.76 0 55.69 0 44.61 0 33.53 0 22.46 0 22.46 11.07 33.53 11.07 33.53 22.15"/><polygon class="cls-1" points="33.53 66.45 33.53 77.53 44.61 77.53 44.61 66.45 44.61 55.38 33.53 55.38 22.46 55.38 22.46 66.45 33.53 66.45"/><rect class="cls-1" x="11.39" y="11.07" width="11.08" height="11.07"/><rect class="cls-1" x="11.39" y="77.53" width="11.08" height="11.08"/><polygon class="cls-1" points="11.39 55.38 22.46 55.38 22.46 44.3 11.39 44.3 11.39 33.22 11.39 22.15 0.31 22.15 0.31 33.22 0.31 44.3 0.31 55.38 0.31 66.45 0.31 77.53 11.39 77.53 11.39 66.45 11.39 55.38"/></svg>