<svg id="Calque_1" data-name="Calque 1" xmlns="http://www.w3.org/2000/svg" viewBox="0 0 100 100"><defs><style>.cls-1{fill:#3a3938;}</style></defs><title>Plan de travail 10 copie 17</title><polygon class="cls-1" points="45.38 32.54 34.26 32.54 34.26 21.42 23.14 21.42 23.14 10.29 12.01 10.29 12.01 -0.83 0.89 -0.83 0.89 10.29 0.89 21.42 0.89 32.54 12.01 32.54 23.14 32.54 23.14 43.67 34.26 43.67 34.26 54.79 45.38 54.79 45.38 65.91 34.26 65.91 34.26 77.04 23.14 77.04 23.14 88.16 12.01 88.16 12.01 99.29 23.14 99.29 34.26 99.29 34.26 88.16 45.38 88.16 45.38 77.04 56.51 77.04 56.51 65.91 67.63 65.91 67.63 77.04 78.75 77.04 78.75 88.16 89.88 88.16 89.88 99.29 101 99.29 101 88.16 101 77.04 89.88 77.04 89.88 65.91 78.75 65.91 78.75 54.79 67.63 54.79 67.63 43.67 78.75 43.67 78.75 32.54 89.88 32.54 89.88 21.42 101 21.42 101 10.29 101 -0.83 89.88 -0.83 78.75 -0.83 78.75 10.29 78.75 21.42 67.63 21.42 67.63 32.54 56.51 32.54 56.51 43.67 45.38 43.67 45.38 32.54"/></svg>