<svg id="Calque_1" data-name="Calque 1" xmlns="http://www.w3.org/2000/svg" viewBox="0 0 100 100"><defs><style>.cls-1{fill:#3a3938;}</style></defs><title>Plan de travail 10 copie 6</title><polygon class="cls-1" points="88.96 44.92 77.92 44.92 77.92 55.96 88.96 55.96 100 55.96 100 44.92 88.96 44.92"/><rect class="cls-1" x="77.92" y="89.08" width="11.04" height="11.04"/><rect class="cls-1" x="66.87" y="0.75" width="11.04" height="11.04"/><rect class="cls-1" x="66.87" y="78.04" width="11.04" height="11.04"/><rect class="cls-1" x="55.83" y="11.79" width="11.04" height="11.04"/><polygon class="cls-1" points="55.83 67 66.88 67 66.88 55.96 55.83 55.96 55.83 44.92 44.79 44.92 44.79 33.88 33.75 33.88 33.75 22.84 22.71 22.84 22.71 11.79 11.67 11.79 11.67 0.75 0.63 0.75 0.63 11.79 0.63 22.84 0.63 33.88 0.63 44.92 0.63 55.96 0.63 67 0.63 78.05 0.63 89.08 0.63 100.13 11.67 100.13 11.67 89.08 22.71 89.08 22.71 78.05 33.75 78.05 33.75 89.08 44.79 89.08 44.79 100.13 55.83 100.13 55.83 89.08 55.83 78.05 44.79 78.05 44.79 67 55.83 67"/></svg>