<svg id="Calque_1" data-name="Calque 1" xmlns="http://www.w3.org/2000/svg" viewBox="0 0 100 100"><defs><style>.cls-1{fill:#3a3938;}</style></defs><title>Plan de travail 3</title><polygon class="cls-1" points="75.97 44.85 87 44.85 87 33.82 75.97 33.82 64.94 33.82 53.91 33.82 53.91 44.85 42.88 44.85 42.88 33.82 31.85 33.82 20.82 33.82 9.79 33.82 9.79 44.85 20.82 44.85 31.85 44.85 31.85 55.88 20.82 55.88 20.82 66.91 9.79 66.91 9.79 77.94 20.82 77.94 31.85 77.94 31.85 88.97 31.85 100 42.88 100 42.88 88.97 42.88 77.94 53.91 77.94 53.91 88.97 53.91 100 64.94 100 64.94 88.97 64.94 77.94 75.97 77.94 87 77.94 87 66.91 75.97 66.91 75.97 55.88 64.94 55.88 64.94 44.85 75.97 44.85"/><polygon class="cls-1" points="53.91 22.79 64.94 22.79 64.94 11.76 64.94 0.73 53.91 0.73 42.88 0.73 31.85 0.73 31.85 11.76 31.85 22.79 42.88 22.79 42.88 33.82 53.91 33.82 53.91 22.79"/></svg>