<svg id="Calque_1" data-name="Calque 1" xmlns="http://www.w3.org/2000/svg" viewBox="0 0 100 100"><defs><style>.cls-1{fill:#3a3938;}</style></defs><title>Plan de travail 5</title><polygon class="cls-1" points="76.09 23.24 76.09 34.15 76.09 45.06 76.09 55.97 76.09 66.89 87 66.89 87 55.97 87 45.06 87 34.15 87 23.24 76.09 23.24"/><rect class="cls-1" x="65.18" y="12.32" width="10.91" height="10.91"/><polygon class="cls-1" points="65.18 55.97 65.18 45.06 54.27 45.06 54.27 55.97 54.27 66.89 43.35 66.89 43.35 55.97 43.35 45.06 32.44 45.06 32.44 55.97 32.44 66.89 21.53 66.89 21.53 77.8 32.44 77.8 32.44 88.71 32.44 99.62 43.35 99.62 54.27 99.62 65.18 99.62 65.18 88.71 65.18 77.8 76.09 77.8 76.09 66.89 65.18 66.89 65.18 55.97"/><polygon class="cls-1" points="54.27 12.32 65.18 12.32 65.18 1.41 54.27 1.41 43.35 1.41 32.44 1.41 32.44 12.32 43.35 12.32 54.27 12.32"/><rect class="cls-1" x="43.35" y="34.15" width="10.92" height="10.91"/><rect class="cls-1" x="21.53" y="12.32" width="10.91" height="10.91"/><polygon class="cls-1" points="21.53 45.06 21.53 34.15 21.53 23.24 10.62 23.24 10.62 34.15 10.62 45.06 10.62 55.97 10.62 66.89 21.53 66.89 21.53 55.97 21.53 45.06"/></svg>