<svg id="Calque_1" data-name="Calque 1" xmlns="http://www.w3.org/2000/svg" viewBox="0 0 100 100"><defs><style>.cls-1{fill:#3a3938;}</style></defs><title>Plan de travail 10 copie 11</title><polygon class="cls-1" points="88.38 17.07 88.38 6.08 77.4 6.08 66.4 6.08 55.41 6.08 55.41 17.07 44.43 17.07 44.43 6.08 33.44 6.08 22.44 6.08 11.46 6.08 11.46 17.07 0.47 17.07 0.47 28.07 0.47 39.05 0.47 50.04 11.46 50.04 11.46 61.03 22.44 61.03 22.44 72.02 33.44 72.02 33.44 83.01 44.43 83.01 44.43 94 55.41 94 55.41 83.01 66.4 83.01 66.4 72.02 77.4 72.02 77.4 61.03 88.38 61.03 88.38 50.04 99.37 50.04 99.37 39.05 99.37 28.07 99.37 17.07 88.38 17.07"/></svg>