<svg id="Calque_1" data-name="Calque 1" xmlns="http://www.w3.org/2000/svg" viewBox="0 0 100 100"><defs><style>.cls-1{fill:#3a3938;}</style></defs><title>Plan de travail 10 copie 12</title><polygon class="cls-1" points="88.01 0.95 77.01 0.95 66.02 0.95 55.02 0.95 44.03 0.95 33.03 0.95 22.04 0.95 22.04 11.95 22.04 22.95 22.04 33.94 22.04 44.93 22.04 55.93 22.04 66.92 11.04 66.92 0.05 66.92 0.05 77.92 0.05 88.91 0.05 99.91 11.04 99.91 22.04 99.91 33.03 99.91 33.03 88.91 33.03 77.92 33.03 66.92 33.03 55.93 33.03 44.93 33.03 33.94 33.03 22.95 44.03 22.95 55.02 22.95 66.02 22.95 77.01 22.95 88.01 22.95 88.01 33.94 88.01 44.93 88.01 55.93 88.01 66.92 77.01 66.92 66.02 66.92 66.02 77.92 66.02 88.91 66.02 99.91 77.01 99.91 88.01 99.91 99 99.91 99 88.91 99 77.92 99 66.92 99 55.93 99 44.93 99 33.94 99 22.95 99 11.95 99 0.95 88.01 0.95"/></svg>