<svg id="Calque_1" data-name="Calque 1" xmlns="http://www.w3.org/2000/svg" viewBox="0 0 491.05 182.26"><defs><style>.cls-1{fill:#3679bd;}.cls-2{fill:#444;}</style></defs><title>logo-bleu</title><polygon id="rect2993-7" class="cls-1" points="127.07 0 149.05 0 149.09 181.76 127.03 181.76 127.07 0"/><polygon id="rect2993-7-2" data-name="rect2993-7" class="cls-2" points="0.04 0.5 22.02 0.5 22.06 182.26 0 182.26 0.04 0.5"/><path id="path2995-5" class="cls-2" d="M170.78,12.28c31.69-.47,55.94,25,56.41,56.91a57.58,57.58,0,0,1-56.41,58.57L170.89,70Z" transform="translate(-13.95 -12.28)"/><path id="path3041-1" class="cls-1" d="M398.26,164.91a29.19,29.19,0,0,1-29.12-29.12l29.16,0Z" transform="translate(-13.95 -12.28)"/><path id="path3041-1-2" data-name="path3041-1" class="cls-1" d="M252.92,164.91a29.19,29.19,0,0,1-29.12-29.12l29.16,0Z" transform="translate(-13.95 -12.28)"/><path id="path3041-1-3" data-name="path3041-1" class="cls-2" d="M81.37,164.91a29.19,29.19,0,0,1-29.12-29.12l29.16,0Z" transform="translate(-13.95 -12.28)"/><path id="path3254" class="cls-1" d="M478,85.08l-42.64,42.67H478l0-42.67Z" transform="translate(-13.95 -12.28)"/><path class="cls-2" d="M477.91,164.84V135.69H456.53v34.73h0A24.22,24.22,0,0,0,480.68,194c14.45,0,24.91-10,24.29-29.13" transform="translate(-13.95 -12.28)"/><path id="path3254-1" class="cls-2" d="M227.65,194l-56.86-58.35,0,58.35Z" transform="translate(-13.95 -12.28)"/><path class="cls-2" d="M348,135.79a29,29,0,1,1-58,0Z" transform="translate(-13.95 -12.28)"/><path class="cls-1" d="M302.48,127.76a28.06,28.06,0,0,1,56.11,0Z" transform="translate(-13.95 -12.28)"/><path class="cls-1" d="M52.25,127.76a28.06,28.06,0,0,1,56.11,0Z" transform="translate(-13.95 -12.28)"/><path class="cls-2" d="M368.94,127.76a28.06,28.06,0,0,1,56.11,0Z" transform="translate(-13.95 -12.28)"/><path class="cls-2" d="M223.79,127.76a28.06,28.06,0,0,1,56.11,0Z" transform="translate(-13.95 -12.28)"/></svg>