<?xml version="1.0" encoding="utf-8"?>
<!-- Generator: Adobe Illustrator 21.0.1, SVG Export Plug-In . SVG Version: 6.00 Build 0)  -->
<svg version="1.1" xmlns="http://www.w3.org/2000/svg" xmlns:xlink="http://www.w3.org/1999/xlink" x="0px" y="0px"
	 viewBox="0 0 1600 1200" style="enable-background:new 0 0 1600 1200;" xml:space="preserve">
<style type="text/css">
	.st0{fill:#444444;}
	.st1{fill:#FFED66;}
	.st2{display:none;}
	.st3{display:inline;fill:#CC0606;}
</style>
<g id="svg2985" inkscape:version="0.48.5 r10040" sodipodi:docname="logo_fixe.svg" xmlns:cc="http://creativecommons.org/ns#" xmlns:dc="http://purl.org/dc/elements/1.1/" xmlns:inkscape="http://www.inkscape.org/namespaces/inkscape" xmlns:rdf="http://www.w3.org/1999/02/22-rdf-syntax-ns#" xmlns:sodipodi="http://sodipodi.sourceforge.net/DTD/sodipodi-0.dtd" xmlns:svg="http://www.w3.org/2000/svg">
	
		<sodipodi:namedview  bordercolor="#666666" borderopacity="1.0" id="base" inkscape:current-layer="layer1" inkscape:cx="682.92205" inkscape:cy="351.65717" inkscape:document-units="px" inkscape:pageopacity="0.0" inkscape:pageshadow="2" inkscape:window-height="702" inkscape:window-maximized="1" inkscape:window-width="1366" inkscape:window-x="0" inkscape:window-y="27" inkscape:zoom="0.42426407" pagecolor="#ffffff" showgrid="false" showguides="false">
		<inkscape:grid  id="grid3019" type="xygrid"></inkscape:grid>
	</sodipodi:namedview>
	<rect id="rect2993" x="140" y="420.7" class="st0" width="60" height="508.3"/>
	
		<path id="path2995" sodipodi:cx="321.66666" sodipodi:cy="605" sodipodi:end="8.93791" sodipodi:rx="78.333336" sodipodi:ry="78.333336" sodipodi:start="5.7987646" sodipodi:type="arc" class="st1" d="
		M236.7,740.8c0.1-43.3,35.3-78.2,78.6-78.1c43.2,0.1,78.1,35.2,78.1,78.4l-78.3,0L236.7,740.8z"/>
	
		<path id="path3041" sodipodi:cx="262.5" sodipodi:cy="802.5" sodipodi:end="2.6600114" sodipodi:rx="22.5" sodipodi:ry="22.5" sodipodi:start="1.0921687" sodipodi:type="arc" class="st0" d="
		M316.8,843c-44.2-0.1-80.1-35.9-80.2-80.2l80.3-0.1L316.8,843z"/>
	<polygon id="rect2993-7" class="st1" points="498.1,420.7 558.1,420.7 558.2,929 498,929 	"/>
	
		<path id="path2995-5" sodipodi:cx="321.66666" sodipodi:cy="605" sodipodi:end="8.93791" sodipodi:rx="78.333336" sodipodi:ry="78.333336" sodipodi:start="5.7987646" sodipodi:type="arc" class="st0" d="
		M579.7,420.7c87.8-1.3,155,69.6,156.3,158.2c1.3,88.5-68.7,161.3-156.3,162.8l0.3-160.5L579.7,420.7z"/>
	
		<path id="path2995-56" sodipodi:cx="321.66666" sodipodi:cy="605" sodipodi:end="8.93791" sodipodi:rx="78.333336" sodipodi:ry="78.333336" sodipodi:start="5.7987646" sodipodi:type="arc" class="st0" d="
		M722.7,740.8c0.1-43.3,35.3-78.2,78.6-78.1c43.2,0.1,78.1,35.2,78.1,78.4l-78.3,0L722.7,740.8z"/>
	
		<path id="path3041-2" sodipodi:cx="262.5" sodipodi:cy="802.5" sodipodi:end="2.6600114" sodipodi:rx="22.5" sodipodi:ry="22.5" sodipodi:start="1.0921687" sodipodi:type="arc" class="st1" d="
		M802.8,842.9c-44.2-0.1-80.1-35.9-80.2-80.2l80.3-0.1L802.8,842.9z"/>
	
		<path id="path2995-9" sodipodi:cx="321.66666" sodipodi:cy="605" sodipodi:end="8.93791" sodipodi:rx="78.333336" sodipodi:ry="78.333336" sodipodi:start="5.7987646" sodipodi:type="arc" class="st0" d="
		M1123.1,740.8c0.1-43.3,35.3-78.2,78.6-78.1c43.2,0.1,78.1,35.2,78.1,78.4l-78.3,0L1123.1,740.8z"/>
	
		<path id="path3041-1" sodipodi:cx="262.5" sodipodi:cy="802.5" sodipodi:end="2.6600114" sodipodi:rx="22.5" sodipodi:ry="22.5" sodipodi:start="1.0921687" sodipodi:type="arc" class="st1" d="
		M1203.2,843c-44.2-0.1-80.1-35.9-80.2-80.2l80.3-0.1L1203.2,843z"/>
	
		<path id="path2995-56-2" sodipodi:cx="321.66666" sodipodi:cy="605" sodipodi:end="8.93791" sodipodi:rx="78.333336" sodipodi:ry="78.333336" sodipodi:start="5.7987646" sodipodi:type="arc" class="st1" d="
		M929.9,740.8c0.1-43.3,35.3-78.2,78.6-78.1c43.2,0.1,78.1,35.2,78.1,78.4l-78.3,0L929.9,740.8z"/>
	
		<path id="path2995-56-7" sodipodi:cx="321.66666" sodipodi:cy="605" sodipodi:end="8.93791" sodipodi:rx="78.333336" sodipodi:ry="78.333336" sodipodi:start="5.7987646" sodipodi:type="arc" class="st0" d="
		M1058.3,763c-0.1,43.3-35.3,78.2-78.6,78.1c-43.2-0.1-78.1-35.2-78.1-78.4l78.3,0L1058.3,763z"/>
	<path id="path3254" inkscape:connector-curvature="0" inkscape:label="Triangle" class="st1" d="M1433.9,610.6L1303.6,741l130.4,0
		L1433.9,610.6L1433.9,610.6z"/>
	<path class="st0" d="M1442.3,861l-8,0v-98.3h-60v100h0c0.9,36.7,30.9,66.2,67.8,66.3c37.6,0.1,68.1-30.3,68.2-67.8L1442.3,861z"/>
	<path id="path3254-1" inkscape:connector-curvature="0" inkscape:label="Triangle" class="st0" d="M737.6,929L579.7,762.7
		l0.1,166.3L737.6,929L737.6,929z"/>
	<g id="layer2" inkscape:groupmode="layer" inkscape:label="Calque">
	</g>
</g>
<g id="Calque_2" class="st2">
	<rect x="200" y="741" class="st3" width="1306.7" height="21.7"/>
	
		<rect x="299" y="679.2" transform="matrix(-1.836970e-16 1 -1 -1.836970e-16 1258.9916 120.9915)" class="st3" width="540" height="21.7"/>
</g>
</svg>
