<svg id="Calque_1" data-name="Calque 1" xmlns="http://www.w3.org/2000/svg" viewBox="0 0 463.88 295.29"><defs><style>.cls-1{fill:#444;}.cls-2{fill:#ffed66;}.cls-3{fill:#fff;}.cls-4{fill:#3679bd;}</style></defs><title>manette-jeu</title><path class="cls-1" d="M482,250A148,148,0,0,0,334.35,102.5l0,19.48a107.83,107.83,0,0,0,25.72,211.43,147.84,147.84,0,0,0,121.76,64.38L482,250.14h0V250Z" transform="translate(-18.12 -102.5)"/><path class="cls-1" d="M18.12,250A148,148,0,0,1,165.76,102.5l0,19.48a107.83,107.83,0,0,1-25.72,211.43A147.84,147.84,0,0,1,18.3,397.79l-.18-147.65h0V250Z" transform="translate(-18.12 -102.5)"/><rect class="cls-1" x="144.85" y="37.58" width="175.39" height="165.99"/><path class="cls-2" d="M189.52,265.35A31.43,31.43,0,1,1,158,234,31.51,31.51,0,0,1,189.52,265.35Z" transform="translate(-18.12 -102.5)"/><path class="cls-2" d="M368,265.35A31.43,31.43,0,1,1,336.5,234,31.51,31.51,0,0,1,368,265.35Z" transform="translate(-18.12 -102.5)"/><path class="cls-3" d="M174.71,265.35A16.62,16.62,0,1,1,158,248.79,16.66,16.66,0,0,1,174.71,265.35Z" transform="translate(-18.12 -102.5)"/><path class="cls-3" d="M353.23,265.35a16.62,16.62,0,1,1-16.68-16.56A16.66,16.66,0,0,1,353.23,265.35Z" transform="translate(-18.12 -102.5)"/><path class="cls-4" d="M419.6,183.62A12.52,12.52,0,1,1,407,171.15,12.55,12.55,0,0,1,419.6,183.62Z" transform="translate(-18.12 -102.5)"/><path class="cls-4" d="M370.08,183.62a12.52,12.52,0,1,1-12.56-12.47A12.55,12.55,0,0,1,370.08,183.62Z" transform="translate(-18.12 -102.5)"/><path class="cls-3" d="M382.32,220.9a12.52,12.52,0,1,1,12.47-12.56A12.55,12.55,0,0,1,382.32,220.9Z" transform="translate(-18.12 -102.5)"/><path class="cls-3" d="M382.32,171.37a12.52,12.52,0,1,1,12.47-12.56A12.55,12.55,0,0,1,382.32,171.37Z" transform="translate(-18.12 -102.5)"/><path class="cls-4" d="M116.32,201.4l0,0v0h0L105,190.07,93.72,201.4l.14.13v19.91h22.43v-20Z" transform="translate(-18.12 -102.5)"/><path class="cls-3" d="M119.26,175.86l0,0h0v0l-11.28,11.25,11.33,11.3.13-.14h19.91V175.89h-20Z" transform="translate(-18.12 -102.5)"/><path class="cls-4" d="M93.45,172.65l0,0v0h0L104.76,184l11.3-11.33-.14-.13V152.61H93.48v20Z" transform="translate(-18.12 -102.5)"/><path class="cls-3" d="M90.51,198.2l0,0h0v0l11.28-11.25-11.33-11.3-.13.14H70.47v22.43h20Z" transform="translate(-18.12 -102.5)"/><rect class="cls-4" x="177.73" y="81.43" width="25.06" height="12.53"/><rect class="cls-4" x="262.3" y="81.43" width="25.06" height="12.53"/></svg>