<svg id="Calque_1" data-name="Calque 1" xmlns="http://www.w3.org/2000/svg" viewBox="0 0 500 496"><defs><style>.cls-1{fill:#3679bd;}.cls-2{fill:#444;}</style></defs><title>clitos</title><path class="cls-1" d="M281.75,119.81A50,50,0,0,0,233,70v0l-.6,0-.6,0v0a44,44,0,0,0-42.7,43.82l42.7,0v6h0v.06h0a50,50,0,0,0,49.87,49.81l.06-49.87h0v-.06Z"/><path class="cls-2" d="M253.92,160.41,211.46,252h0L156.81,369.81l0,0a101.24,101.24,0,0,1-133.3,47.61l41.75-90.1h0l54.65-117.77A101.26,101.26,0,0,1,253.92,160.41Z"/><path class="cls-2" d="M252.86,160.41,295.32,252h0L350,369.81l0,0a101.24,101.24,0,0,0,133.3,47.61l-41.75-90.1h0L386.91,209.54A101.26,101.26,0,0,0,252.86,160.41Z"/><path class="cls-1" d="M322.88,230.18l.08.08h0a99.07,99.07,0,0,0,139.71-.08l-69.81-70h0l-.08-.08h0a99.08,99.08,0,0,0-139.71.08l69.81,70h0Z"/><path class="cls-1" d="M183.41,230.18l-.08.08h0a99.07,99.07,0,0,1-139.71-.08l69.81-70h0l.08-.08h0a99.08,99.08,0,0,1,139.71.08l-69.81,70h0Z"/></svg>