<svg id="Calque_1" data-name="Calque 1" xmlns="http://www.w3.org/2000/svg" viewBox="0 0 1000 500"><defs><style>.cls-1{fill:#ffed66;}.cls-2{fill:#444;}.cls-3{fill:#3679bd;}</style></defs><title>clitos</title><path class="cls-1" d="M160.88,75.1A17.16,17.16,0,0,0,144.16,58h-.41a15.1,15.1,0,0,0-14.65,15h14.65v2.05h0v0h0a17.15,17.15,0,0,0,17.11,17.09l0-17.11h0v0Z"/><path class="cls-2" d="M151.33,89l-14.57,31.44h0L118,160.88h0a34.74,34.74,0,0,1-45.73,16.34l14.32-30.91h0l18.75-40.41A34.74,34.74,0,0,1,151.33,89Z"/><path class="cls-2" d="M151,89l14.57,31.44h0l18.75,40.41h0A34.74,34.74,0,0,0,230,177.21l-14.32-30.91h0L197,105.89A34.74,34.74,0,0,0,151,89Z"/><path class="cls-1" d="M175,113l0,0h0A34,34,0,0,0,223,113L199,89h0l0,0h0A34,34,0,0,0,151,89l24,24h0Z"/><path class="cls-1" d="M127.14,113l0,0h0a34,34,0,0,1-47.93,0l24-24h0l0,0h0a34,34,0,0,1,47.93,0l-24,24h0Z"/><path class="cls-3" d="M202.33,257.77a17.16,17.16,0,0,0,16.72,17.08h.41a15.1,15.1,0,0,0,14.65-15H219.46v-2.05h0v0h0a17.15,17.15,0,0,0-17.11-17.09l0,17.11h0v0Z"/><path class="cls-2" d="M211.88,243.84l14.57-31.44h0L245.2,172h0a34.74,34.74,0,0,1,45.73-16.34l-14.32,30.91h0L257.87,227A34.74,34.74,0,0,1,211.88,243.84Z"/><path class="cls-2" d="M212.24,243.84,197.67,212.4h0L178.92,172h0a34.74,34.74,0,0,0-45.73-16.34l14.32,30.91h0L166.25,227A34.74,34.74,0,0,0,212.24,243.84Z"/><path class="cls-3" d="M188.22,219.9l0,0h0a34,34,0,0,0-47.93,0l24,24h0l0,0h0a34,34,0,0,0,47.93,0l-24-24h0Z"/><path class="cls-3" d="M236.07,219.9l0,0h0a34,34,0,0,1,47.93,0l-24,24h0l0,0h0a34,34,0,0,1-47.93,0l24-24h0Z"/><path class="cls-1" d="M388.63,75.1A17.16,17.16,0,0,0,371.91,58h-.41a15.1,15.1,0,0,0-14.65,15H371.5v2.05h0v0h0a17.15,17.15,0,0,0,17.11,17.09l0-17.11h0v0Z"/><path class="cls-2" d="M379.09,89l-14.57,31.44h0l-18.75,40.41h0A34.74,34.74,0,0,1,300,177.21l14.32-30.91h0l18.75-40.41A34.74,34.74,0,0,1,379.09,89Z"/><path class="cls-2" d="M378.72,89l14.57,31.44h0L412,160.88h0a34.74,34.74,0,0,0,45.73,16.34l-14.32-30.91h0l-18.75-40.41A34.74,34.74,0,0,0,378.72,89Z"/><path class="cls-1" d="M402.75,113l0,0h0a34,34,0,0,0,47.93,0l-24-24h0l0,0h0a34,34,0,0,0-47.93,0l24,24h0Z"/><path class="cls-1" d="M354.9,113l0,0h0a34,34,0,0,1-47.93,0l24-24h0l0,0h0a34,34,0,0,1,47.93,0l-24,24h0Z"/><path class="cls-3" d="M430.08,257.77a17.16,17.16,0,0,0,16.72,17.08h.41a15.1,15.1,0,0,0,14.65-15H447.21v-2.05h0v0h0a17.15,17.15,0,0,0-17.11-17.09l0,17.11h0v0Z"/><path class="cls-2" d="M439.63,243.84,454.2,212.4h0L473,172h0a34.74,34.74,0,0,1,45.73-16.34l-14.32,30.91h0L485.63,227A34.74,34.74,0,0,1,439.63,243.84Z"/><path class="cls-2" d="M440,243.84,425.43,212.4h0L406.68,172h0a34.74,34.74,0,0,0-45.73-16.34l14.32,30.91h0L394,227A34.74,34.74,0,0,0,440,243.84Z"/><path class="cls-3" d="M416,219.9l0,0h0a34,34,0,0,0-47.93,0l24,24h0l0,0h0a34,34,0,0,0,47.93,0l-24-24h0Z"/><path class="cls-3" d="M463.82,219.9l0,0h0a34,34,0,0,1,47.93,0l-24,24h0l0,0h0a34,34,0,0,1-47.93,0l24-24h0Z"/><path class="cls-1" d="M618.18,75.1A17.16,17.16,0,0,0,601.46,58H601a15.1,15.1,0,0,0-14.65,15H601v2.05h0v0h0a17.15,17.15,0,0,0,17.11,17.09l0-17.11h0v0Z"/><path class="cls-2" d="M608.63,89l-14.57,31.44h0l-18.75,40.41h0a34.74,34.74,0,0,1-45.73,16.34l14.32-30.91h0l18.75-40.41A34.74,34.74,0,0,1,608.63,89Z"/><path class="cls-2" d="M608.26,89l14.57,31.44h0l18.75,40.41h0a34.74,34.74,0,0,0,45.73,16.34L673,146.29h0l-18.75-40.41A34.74,34.74,0,0,0,608.26,89Z"/><path class="cls-1" d="M632.29,113l0,0h0a34,34,0,0,0,47.93,0l-24-24h0l0,0h0a34,34,0,0,0-47.93,0l24,24h0Z"/><path class="cls-1" d="M584.44,113l0,0h0a34,34,0,0,1-47.93,0l24-24h0l0,0h0a34,34,0,0,1,47.93,0l-24,24h0Z"/><path class="cls-3" d="M659.63,257.77a17.16,17.16,0,0,0,16.72,17.08h.41a15.1,15.1,0,0,0,14.65-15H676.76v-2.05h0v0h0a17.15,17.15,0,0,0-17.11-17.09l0,17.11h0v0Z"/><path class="cls-2" d="M669.18,243.84l14.57-31.44h0L702.49,172h0a34.74,34.74,0,0,1,45.73-16.34l-14.32,30.91h0L715.17,227A34.74,34.74,0,0,1,669.18,243.84Z"/><path class="cls-2" d="M669.54,243.84,655,212.4h0L636.22,172h0a34.74,34.74,0,0,0-45.73-16.34l14.32,30.91h0L623.55,227A34.74,34.74,0,0,0,669.54,243.84Z"/><path class="cls-3" d="M645.52,219.9l0,0h0a34,34,0,0,0-47.93,0l24,24h0l0,0h0a34,34,0,0,0,47.93,0l-24-24h0Z"/><path class="cls-3" d="M693.37,219.9l0,0h0a34,34,0,0,1,47.93,0l-24,24h0l0,0h0a34,34,0,0,1-47.93,0l24-24h0Z"/><path class="cls-1" d="M845.93,75.1A17.16,17.16,0,0,0,829.21,58h-.41a15.1,15.1,0,0,0-14.65,15H828.8v2.05h0v0h0a17.15,17.15,0,0,0,17.11,17.09l0-17.11h0v0Z"/><path class="cls-2" d="M836.39,89l-14.57,31.44h0l-18.75,40.41h0a34.74,34.74,0,0,1-45.73,16.34l14.32-30.91h0l18.75-40.41A34.74,34.74,0,0,1,836.39,89Z"/><path class="cls-2" d="M836,89l14.57,31.44h0l18.75,40.41h0a34.74,34.74,0,0,0,45.73,16.34l-14.32-30.91h0L882,105.89A34.74,34.74,0,0,0,836,89Z"/><path class="cls-1" d="M860,113l0,0h0A34,34,0,0,0,908,113l-24-24h0l0,0h0a34,34,0,0,0-47.93,0l24,24h0Z"/><path class="cls-1" d="M812.19,113l0,0h0a34,34,0,0,1-47.93,0l24-24h0l0,0h0a34,34,0,0,1,47.93,0l-24,24h0Z"/><path class="cls-3" d="M887.38,257.77a17.16,17.16,0,0,0,16.72,17.08h.41a15.1,15.1,0,0,0,14.65-15H904.51v-2.05h0v0h0a17.15,17.15,0,0,0-17.11-17.09l0,17.11h0v0Z"/><path class="cls-2" d="M896.93,243.84,911.5,212.4h0L930.25,172h0A34.74,34.74,0,0,1,976,155.66l-14.32,30.91h0L942.93,227A34.74,34.74,0,0,1,896.93,243.84Z"/><path class="cls-2" d="M897.3,243.84,882.73,212.4h0L864,172h0a34.74,34.74,0,0,0-45.73-16.34l14.32,30.91h0L851.3,227A34.74,34.74,0,0,0,897.3,243.84Z"/><path class="cls-3" d="M873.27,219.9l0,0h0a34,34,0,0,0-47.93,0l24,24h0l0,0h0a34,34,0,0,0,47.93,0l-24-24h0Z"/><path class="cls-3" d="M921.12,219.9l0,0h0a34,34,0,0,1,47.93,0l-24,24h0l0,0h0a34,34,0,0,1-47.93,0l24-24h0Z"/><path class="cls-1" d="M112.08,242.41a17.16,17.16,0,0,0-16.72-17.08H95a15.1,15.1,0,0,0-14.65,15H95v2.05h0v0h0a17.15,17.15,0,0,0,17.11,17.09l0-17.11h0v0Z"/><path class="cls-2" d="M102.53,256.34,88,287.78h0L69.21,328.18h0a34.74,34.74,0,0,1-45.73,16.34L37.79,313.6h0l18.75-40.41A34.74,34.74,0,0,1,102.53,256.34Z"/><path class="cls-2" d="M102.17,256.34l14.57,31.44h0l18.75,40.41h0a34.74,34.74,0,0,0,45.73,16.34L166.91,313.6h0l-18.75-40.41A34.74,34.74,0,0,0,102.17,256.34Z"/><path class="cls-1" d="M126.19,280.28l0,0h0a34,34,0,0,0,47.93,0l-24-24h0l0,0h0a34,34,0,0,0-47.93,0l24,24h0Z"/><path class="cls-1" d="M78.34,280.28l0,0h0a34,34,0,0,1-47.93,0l24-24h0l0,0h0a34,34,0,0,1,47.93,0l-24,24h0Z"/><path class="cls-3" d="M153.53,425.07a17.16,17.16,0,0,0,16.72,17.08h.41a15.1,15.1,0,0,0,14.65-15H170.66V425h0v0h0a17.15,17.15,0,0,0-17.11-17.09l0,17.11h0v0Z"/><path class="cls-2" d="M163.08,411.14l14.57-31.44h0l18.75-40.41h0A34.74,34.74,0,0,1,242.15,323l-14.32,30.91h0l-18.75,40.41A34.74,34.74,0,0,1,163.08,411.14Z"/><path class="cls-2" d="M163.44,411.14,148.88,379.7h0l-18.75-40.41h0A34.74,34.74,0,0,0,84.38,323L98.7,353.88h0l18.75,40.41A34.74,34.74,0,0,0,163.44,411.14Z"/><path class="cls-3" d="M139.42,387.2l0,0h0a34,34,0,0,0-47.93,0l24,24h0l0,0h0a34,34,0,0,0,47.93,0l-24-24h0Z"/><path class="cls-3" d="M187.27,387.2l0,0h0a34,34,0,0,1,47.93,0l-24,24h0l0,0h0a34,34,0,0,1-47.93,0l24-24h0Z"/><path class="cls-1" d="M339.84,242.41a17.16,17.16,0,0,0-16.72-17.08h-.41a15.1,15.1,0,0,0-14.65,15h14.65v2.05h0v0h0a17.15,17.15,0,0,0,17.11,17.09l0-17.11h0v0Z"/><path class="cls-2" d="M330.29,256.34l-14.57,31.44h0L297,328.18h0a34.74,34.74,0,0,1-45.73,16.34l14.32-30.91h0l18.75-40.41A34.74,34.74,0,0,1,330.29,256.34Z"/><path class="cls-2" d="M329.92,256.34l14.57,31.44h0l18.75,40.41h0A34.74,34.74,0,0,0,409,344.51L394.67,313.6h0l-18.75-40.41A34.74,34.74,0,0,0,329.92,256.34Z"/><path class="cls-1" d="M353.95,280.28l0,0h0a34,34,0,0,0,47.93,0l-24-24h0l0,0h0a34,34,0,0,0-47.93,0l24,24h0Z"/><path class="cls-1" d="M306.1,280.28l0,0h0a34,34,0,0,1-47.93,0l24-24h0l0,0h0a34,34,0,0,1,47.93,0l-24,24h0Z"/><path class="cls-3" d="M381.29,425.07A17.16,17.16,0,0,0,398,442.15h.41a15.1,15.1,0,0,0,14.65-15H398.42V425h0v0h0a17.15,17.15,0,0,0-17.11-17.09l0,17.11h0v0Z"/><path class="cls-2" d="M390.84,411.14,405.4,379.7h0l18.75-40.41h0A34.74,34.74,0,0,1,469.9,323l-14.32,30.91h0l-18.75,40.41A34.74,34.74,0,0,1,390.84,411.14Z"/><path class="cls-2" d="M391.2,411.14,376.63,379.7h0l-18.75-40.41h0A34.74,34.74,0,0,0,312.13,323l14.32,30.91h0l18.75,40.41A34.74,34.74,0,0,0,391.2,411.14Z"/><path class="cls-3" d="M367.17,387.2l0,0h0a34,34,0,0,0-47.93,0l24,24h0l0,0h0a34,34,0,0,0,47.93,0l-24-24h0Z"/><path class="cls-3" d="M415,387.2l0,0h0a34,34,0,0,1,47.93,0l-24,24h0l0,0h0a34,34,0,0,1-47.93,0l24-24h0Z"/><path class="cls-1" d="M569.38,242.41a17.16,17.16,0,0,0-16.72-17.08h-.41a15.1,15.1,0,0,0-14.65,15h14.65v2.05h0v0h0a17.15,17.15,0,0,0,17.11,17.09l0-17.11h0v0Z"/><path class="cls-2" d="M559.83,256.34l-14.57,31.44h0l-18.75,40.41h0a34.74,34.74,0,0,1-45.73,16.34l14.32-30.91h0l18.75-40.41A34.74,34.74,0,0,1,559.83,256.34Z"/><path class="cls-2" d="M559.47,256.34,574,287.78h0l18.75,40.41h0a34.74,34.74,0,0,0,45.73,16.34L624.21,313.6h0l-18.75-40.41A34.74,34.74,0,0,0,559.47,256.34Z"/><path class="cls-1" d="M583.49,280.28l0,0h0a34,34,0,0,0,47.93,0l-24-24h0l0,0h0a34,34,0,0,0-47.93,0l24,24h0Z"/><path class="cls-1" d="M535.64,280.28l0,0h0a34,34,0,0,1-47.93,0l24-24h0l0,0h0a34,34,0,0,1,47.93,0l-24,24h0Z"/><path class="cls-3" d="M610.83,425.07a17.16,17.16,0,0,0,16.72,17.08H628a15.1,15.1,0,0,0,14.65-15H628V425h0v0h0a17.15,17.15,0,0,0-17.11-17.09l0,17.11h0v0Z"/><path class="cls-2" d="M620.38,411.14l14.57-31.44h0l18.75-40.41h0A34.74,34.74,0,0,1,699.45,323l-14.32,30.91h0l-18.75,40.41A34.74,34.74,0,0,1,620.38,411.14Z"/><path class="cls-2" d="M620.74,411.14,606.18,379.7h0l-18.75-40.41h0A34.74,34.74,0,0,0,541.68,323L556,353.88h0l18.75,40.41A34.74,34.74,0,0,0,620.74,411.14Z"/><path class="cls-3" d="M596.72,387.2l0,0h0a34,34,0,0,0-47.93,0l24,24h0l0,0h0a34,34,0,0,0,47.93,0l-24-24h0Z"/><path class="cls-3" d="M644.57,387.2l0,0h0a34,34,0,0,1,47.93,0l-24,24h0l0,0h0a34,34,0,0,1-47.93,0l24-24h0Z"/><path class="cls-1" d="M797.14,242.41a17.16,17.16,0,0,0-16.72-17.08H780a15.1,15.1,0,0,0-14.65,15H780v2.05h0v0h0a17.15,17.15,0,0,0,17.11,17.09l0-17.11h0v0Z"/><path class="cls-2" d="M787.59,256.34,773,287.78h0l-18.75,40.41h0a34.74,34.74,0,0,1-45.73,16.34l14.32-30.91h0l18.75-40.41A34.74,34.74,0,0,1,787.59,256.34Z"/><path class="cls-2" d="M787.22,256.34l14.57,31.44h0l18.75,40.41h0a34.74,34.74,0,0,0,45.73,16.34L852,313.6h0l-18.75-40.41A34.74,34.74,0,0,0,787.22,256.34Z"/><path class="cls-1" d="M811.25,280.28l0,0h0a34,34,0,0,0,47.93,0l-24-24h0l0,0h0a34,34,0,0,0-47.93,0l24,24h0Z"/><path class="cls-1" d="M763.4,280.28l0,0h0a34,34,0,0,1-47.93,0l24-24h0l0,0h0a34,34,0,0,1,47.93,0l-24,24h0Z"/><path class="cls-3" d="M838.59,425.07a17.16,17.16,0,0,0,16.72,17.08h.41a15.1,15.1,0,0,0,14.65-15H855.72V425h0v0h0a17.15,17.15,0,0,0-17.11-17.09l0,17.11h0v0Z"/><path class="cls-2" d="M848.13,411.14,862.7,379.7h0l18.75-40.41h0A34.74,34.74,0,0,1,927.2,323l-14.32,30.91h0l-18.75,40.41A34.74,34.74,0,0,1,848.13,411.14Z"/><path class="cls-2" d="M848.5,411.14,833.93,379.7h0l-18.75-40.41h0A34.74,34.74,0,0,0,769.43,323l14.32,30.91h0l18.75,40.41A34.74,34.74,0,0,0,848.5,411.14Z"/><path class="cls-3" d="M824.47,387.2l0,0h0a34,34,0,0,0-47.93,0l24,24h0l0,0h0a34,34,0,0,0,47.93,0l-24-24h0Z"/><path class="cls-3" d="M872.33,387.2l0,0h0a34,34,0,0,1,47.93,0l-24,24h0l0,0h0a34,34,0,0,1-47.93,0l24-24h0Z"/></svg>