<svg id="Calque_1" data-name="Calque 1" xmlns="http://www.w3.org/2000/svg" viewBox="0 0 1920 1080"><defs><style>.cls-1{fill:#ffed66;}.cls-2{fill:#3679bd;}.cls-3{fill:#444;}.cls-4{fill:#fff;}</style></defs><title>atelier</title><polygon id="rect2993-7" class="cls-1" points="512.95 902.17 513.32 724.65 226.37 724.36 226.37 902.47 512.95 902.17"/><path id="path2995-5" class="cls-1" d="M513.32,733c1-78.89-62.6-139.15-142-140.17S227,654.79,225.81,733.5L369.56,733Z"/><path class="cls-1" d="M484.22,794a52.75,52.75,0,0,0,0-105.5Z"/><path class="cls-2" d="M327.23,600.28a44,44,0,0,0,88.06,0Z"/><path id="path3041-1" class="cls-1" d="M190.46,786.91a90,90,0,0,0,89.8,89.8l.11-89.91Z"/><path class="cls-2" d="M417,591.6h.11a90,90,0,0,0,89.68-89.79l-89.8-.11h-.11a90.1,90.1,0,0,0-89.68,89.91H417Z"/><path class="cls-2" d="M517.91,812.41H518a49.81,49.81,0,0,1,49.63,49.69l-49.7.06h-.06a49.81,49.81,0,0,1-49.63-49.69l49.7-.06h0Z"/><path class="cls-2" d="M1039.69,465v-.11h0a90,90,0,0,1,89.79-89.68l.11,89.8h0v.11h0a90,90,0,0,1-89.79,89.68l-.11-89.8h0Z"/><path class="cls-2" d="M1201,317.7A88.06,88.06,0,0,0,1113,405.75h-2.91l.06,88.06a95,95,0,0,1,89.46-88.06h90.12C1289.71,357.12,1249.68,317.7,1201,317.7Z"/><rect class="cls-2" x="327.23" y="586.67" width="88.06" height="14.41" transform="translate(742.52 1187.75) rotate(-180)"/><path class="cls-1" d="M190.47,715.52a72.25,72.25,0,0,1,72.08-72l.09,72.08h0v.09h0c0,1.31,0,2.62-.12,3.92V790h-72V718h0v-2.34h0v-.09Z"/><path class="cls-2" d="M319.41,790h.09a72.25,72.25,0,0,1,72,72.08l-72.08.09h-.09a72.25,72.25,0,0,1-72-72.08l72.08-.09h0Z"/><path class="cls-3" d="M1354.47,700.47h.06a49.81,49.81,0,0,0,49.63-49.69l-49.7-.06h-.06a49.81,49.81,0,0,0-49.63,49.69l49.7.06h0Z"/><polygon id="rect2993-7-2" data-name="rect2993-7" class="cls-1" points="1295.64 903.21 1296.06 628.75 973.58 628.29 973.58 903.67 1295.64 903.21"/><path id="path2995-5-2" data-name="path2995-5" class="cls-1" d="M1296.06,636.9c1-78.89-62.6-139.15-142-140.17s-144.36,62-145.55,140.71l143.75-.54Z"/><path class="cls-3" d="M1110,504.22a44,44,0,0,0,88.06,0Z"/><path class="cls-3" d="M1199.76,495.54h.11a90,90,0,0,0,89.68-89.79l-89.8-.11h-.11A90.1,90.1,0,0,0,1110,495.54h89.8Z"/><rect class="cls-3" x="1109.97" y="490.61" width="88.06" height="14.41" transform="translate(2308 995.62) rotate(-180)"/><path class="cls-1" d="M973.2,619.46a72.25,72.25,0,0,1,72.08-72l.09,72.08h0v.09h0c0,1.31,0,2.62-.12,3.92v70.38h-72v-72h0v-2.34h0v-.09Z"/><path class="cls-3" d="M1527.42,591.6h.11a90,90,0,0,0,89.68-89.79l-89.8-.11h-.11a90,90,0,0,0-89.68,89.79l89.8.11h0Z"/><polygon id="rect2993-7-3" data-name="rect2993-7" class="cls-1" points="1441.08 902.17 1440.71 724.65 1727.66 724.36 1727.66 902.47 1441.08 902.17"/><path id="path2995-5-3" data-name="path2995-5" class="cls-1" d="M1440.71,733c-1-78.89,62.6-139.15,142-140.17s144.36,62,145.55,140.71L1584.47,733Z"/><polygon id="rect2993-7-4" data-name="rect2993-7" class="cls-2" points="-10 1090.45 -10 903.56 1930 903.25 1930 1090.76 -10 1090.45"/><path class="cls-3" d="M490.6,451l-.06-78.75-40,40,0-40L410.2,412.58c-.85.06-1.71.11-2.56.19l-13.9-33.58-17.37,41.87-27.78-25.31,2.1,45.5-.88,1-33-10.81,17.63,34.83a89.15,89.15,0,0,0-7.36,35.56H327l.06,88.06a95,95,0,0,1,89.46-88.06h90.12A88.38,88.38,0,0,0,490.6,451Z"/><path class="cls-1" d="M1277.28,622.82a52.75,52.75,0,0,1,0,105.5Z"/><polygon id="rect2993-7-5" data-name="rect2993-7" class="cls-3" points="1045.21 904 1045.21 862.66 1612.39 862.59 1612.39 904.07 1045.21 904"/><polygon class="cls-3" points="1386.65 863.65 1185.38 657.11 1045.56 657.11 844.36 657.11 1045.63 863.65 1045.63 863.65 1386.65 863.65"/><circle class="cls-4" cx="1103.26" cy="761.18" r="24.02"/><polygon id="rect2993-7-6" data-name="rect2993-7" class="cls-3" points="702.49 904 702.49 862.12 257.92 862.04 257.92 904.07 702.49 904"/><polygon class="cls-3" points="434.86 872.38 592.62 710.5 702.21 710.5 859.91 710.5 702.16 872.38 702.16 872.38 434.86 872.38"/><circle class="cls-4" cx="656.98" cy="792.07" r="18.82"/><path class="cls-2" d="M1626.8,600.28a44,44,0,0,1-88.06,0Z"/><path id="path3041-1-2" data-name="path3041-1" class="cls-1" d="M1763.57,786.91a90,90,0,0,1-89.8,89.8l-.11-89.91Z"/><path class="cls-2" d="M1548.22,591.6h-.11a90,90,0,0,1-89.68-89.79l89.8-.11h.11A90.1,90.1,0,0,1,1638,591.6h-89.8Z"/><path class="cls-2" d="M1436.12,812.41h-.06a49.81,49.81,0,0,0-49.63,49.69l49.7.06h.06a49.81,49.81,0,0,0,49.63-49.69l-49.7-.06h0Z"/><path class="cls-3" d="M967,854H967a49.81,49.81,0,0,0-49.63,49.69l49.7.06h.06a49.81,49.81,0,0,0,49.63-49.69L967,854h0Z"/><rect class="cls-2" x="1538.74" y="586.67" width="88.06" height="14.41"/><path class="cls-1" d="M1763.57,715.52a72.25,72.25,0,0,0-72.08-72l-.09,72.08h0v.09h0c0,1.31,0,2.62.12,3.92V790h72V718h0v-2.34h0v-.09Z"/><path class="cls-2" d="M1634.62,790h-.09a72.25,72.25,0,0,0-72,72.08l72.08.09h.09a72.25,72.25,0,0,0,72-72.08l-72.08-.09h0Z"/><path class="cls-3" d="M1727.66,591.49a89.89,89.89,0,0,0-88-89.63v0h-4.51a88.06,88.06,0,0,0-88.06-88.06c-48.63,0-88.67,39.42-88.67,88.06h88.5A96.69,96.69,0,0,1,1638,591.47v.13Z"/></svg>