<svg id="Calque_1" data-name="Calque 1" xmlns="http://www.w3.org/2000/svg" viewBox="0 0 1920 1080"><defs><style>.cls-1{fill:#ffed66;}.cls-2{fill:#fff;}.cls-3{fill:#3679bd;}.cls-4{fill:#444;}</style></defs><title>atelier</title><rect class="cls-1" x="-10" y="-10" width="1940" height="1101"/><polygon id="rect2993-7" class="cls-2" points="513.95 902.17 514.32 724.65 227.37 724.36 227.37 902.47 513.95 902.17"/><path id="path2995-5" class="cls-2" d="M514.32,733c1-78.89-62.6-139.15-142-140.17S228,654.79,226.81,733.5L370.56,733Z"/><path class="cls-2" d="M485.22,794a52.75,52.75,0,0,0,0-105.5Z"/><path class="cls-3" d="M328.23,600.28a44,44,0,0,0,88.06,0Z"/><path id="path3041-1" class="cls-2" d="M191.46,786.91a90,90,0,0,0,89.8,89.8l.11-89.91Z"/><path class="cls-3" d="M418,591.6h.11a90,90,0,0,0,89.68-89.79l-89.8-.11h-.11a90.1,90.1,0,0,0-89.68,89.91H418Z"/><path class="cls-3" d="M518.91,812.41H519a49.81,49.81,0,0,1,49.63,49.69l-49.7.06h-.06a49.81,49.81,0,0,1-49.63-49.69l49.7-.06h0Z"/><path class="cls-3" d="M1040.69,465v-.11h0a90,90,0,0,1,89.79-89.68l.11,89.8h0v.11h0a90,90,0,0,1-89.79,89.68l-.11-89.8h0Z"/><path class="cls-3" d="M1202,317.7A88.06,88.06,0,0,0,1114,405.75h-2.91l.06,88.06a95,95,0,0,1,89.46-88.06h90.12C1290.71,357.12,1250.68,317.7,1202,317.7Z"/><rect class="cls-3" x="328.23" y="586.67" width="88.06" height="14.41" transform="translate(744.52 1187.75) rotate(-180)"/><path class="cls-2" d="M191.47,715.52a72.25,72.25,0,0,1,72.08-72l.09,72.08h0v.09h0c0,1.31,0,2.62-.12,3.92V790h-72V718h0v-2.34h0v-.09Z"/><path class="cls-3" d="M320.41,790h.09a72.25,72.25,0,0,1,72,72.08l-72.08.09h-.09a72.25,72.25,0,0,1-72-72.08l72.08-.09h0Z"/><path class="cls-4" d="M1355.47,700.47h.06a49.81,49.81,0,0,0,49.63-49.69l-49.7-.06h-.06a49.81,49.81,0,0,0-49.63,49.69l49.7.06h0Z"/><polygon id="rect2993-7-2" data-name="rect2993-7" class="cls-2" points="1296.64 903.21 1297.06 628.75 974.58 628.29 974.58 903.67 1296.64 903.21"/><path id="path2995-5-2" data-name="path2995-5" class="cls-2" d="M1297.06,636.9c1-78.89-62.6-139.15-142-140.17s-144.36,62-145.55,140.71l143.75-.54Z"/><path class="cls-4" d="M1111,504.22a44,44,0,0,0,88.06,0Z"/><path class="cls-4" d="M1200.76,495.54h.11a90,90,0,0,0,89.68-89.79l-89.8-.11h-.11A90.1,90.1,0,0,0,1111,495.54h89.8Z"/><rect class="cls-4" x="1110.97" y="490.61" width="88.06" height="14.41" transform="translate(2310 995.62) rotate(-180)"/><path class="cls-2" d="M974.2,619.46a72.25,72.25,0,0,1,72.08-72l.09,72.08h0v.09h0c0,1.31,0,2.62-.12,3.92v70.38h-72v-72h0v-2.34h0v-.09Z"/><path class="cls-4" d="M1528.42,591.6h.11a90,90,0,0,0,89.68-89.79l-89.8-.11h-.11a90,90,0,0,0-89.68,89.79l89.8.11h0Z"/><polygon id="rect2993-7-3" data-name="rect2993-7" class="cls-2" points="1442.08 902.17 1441.71 724.65 1728.66 724.36 1728.66 902.47 1442.08 902.17"/><path id="path2995-5-3" data-name="path2995-5" class="cls-2" d="M1441.71,733c-1-78.89,62.6-139.15,142-140.17s144.36,62,145.55,140.71L1585.47,733Z"/><polygon id="rect2993-7-4" data-name="rect2993-7" class="cls-3" points="-9 1090.45 -9 903.56 1931 903.25 1931 1090.76 -9 1090.45"/><path class="cls-4" d="M491.6,451l-.06-78.75-40,40,0-40L411.2,412.58c-.85.06-1.71.11-2.56.19l-13.9-33.58-17.37,41.87-27.78-25.31,2.1,45.5-.88,1-33-10.81,17.63,34.83a89.15,89.15,0,0,0-7.36,35.56H328l.06,88.06a95,95,0,0,1,89.46-88.06h90.12A88.38,88.38,0,0,0,491.6,451Z"/><path class="cls-2" d="M1278.28,622.82a52.75,52.75,0,0,1,0,105.5Z"/><polygon id="rect2993-7-5" data-name="rect2993-7" class="cls-4" points="1046.21 904 1046.21 862.66 1613.39 862.59 1613.39 904.07 1046.21 904"/><polygon class="cls-4" points="1387.65 863.65 1186.38 657.11 1046.56 657.11 845.36 657.11 1046.63 863.65 1046.63 863.65 1387.65 863.65"/><circle class="cls-2" cx="1104.26" cy="761.18" r="24.02"/><polygon id="rect2993-7-6" data-name="rect2993-7" class="cls-4" points="703.49 904 703.49 862.12 258.92 862.04 258.92 904.07 703.49 904"/><polygon class="cls-4" points="435.86 872.38 593.62 710.5 703.21 710.5 860.91 710.5 703.16 872.38 703.16 872.38 435.86 872.38"/><circle class="cls-2" cx="657.98" cy="792.07" r="18.82"/><path class="cls-3" d="M1627.8,600.28a44,44,0,0,1-88.06,0Z"/><path id="path3041-1-2" data-name="path3041-1" class="cls-2" d="M1764.57,786.91a90,90,0,0,1-89.8,89.8l-.11-89.91Z"/><path class="cls-3" d="M1549.22,591.6h-.11a90,90,0,0,1-89.68-89.79l89.8-.11h.11A90.1,90.1,0,0,1,1639,591.6h-89.8Z"/><path class="cls-3" d="M1437.12,812.41h-.06a49.81,49.81,0,0,0-49.63,49.69l49.7.06h.06a49.81,49.81,0,0,0,49.63-49.69l-49.7-.06h0Z"/><path class="cls-4" d="M968,854H968a49.81,49.81,0,0,0-49.63,49.69l49.7.06h.06a49.81,49.81,0,0,0,49.63-49.69L968,854h0Z"/><rect class="cls-3" x="1539.74" y="586.67" width="88.06" height="14.41"/><path class="cls-2" d="M1764.57,715.52a72.25,72.25,0,0,0-72.08-72l-.09,72.08h0v.09h0c0,1.31,0,2.62.12,3.92V790h72V718h0v-2.34h0v-.09Z"/><path class="cls-3" d="M1635.62,790h-.09a72.25,72.25,0,0,0-72,72.08l72.08.09h.09a72.25,72.25,0,0,0,72-72.08l-72.08-.09h0Z"/><path class="cls-4" d="M1728.66,591.49a89.89,89.89,0,0,0-88-89.63v0h-4.51a88.06,88.06,0,0,0-88.06-88.06c-48.63,0-88.67,39.42-88.67,88.06h88.5A96.69,96.69,0,0,1,1639,591.47v.13Z"/></svg>