<svg id="Calque_1" data-name="Calque 1" xmlns="http://www.w3.org/2000/svg" viewBox="0 0 323.68 500"><defs><style>.cls-1{fill:#ffed66;}.cls-2{fill:#fff;}.cls-3{fill:#3679bd;}.cls-4{fill:#444;}</style></defs><title>clippy</title><rect class="cls-1" x="54.71" y="286.35" width="217.47" height="179.32"/><rect class="cls-1" x="31.82" y="465.66" width="217.47" height="34.34"/><rect class="cls-1" x="160.43" y="252.01" width="17.17" height="17.17" transform="translate(341.05 91.58) rotate(90)"/><rect class="cls-1" x="143.26" y="269.18" width="17.17" height="17.17" transform="translate(341.05 125.92) rotate(90)"/><rect class="cls-1" x="194.77" y="217.67" width="17.17" height="17.17" transform="translate(341.05 22.9) rotate(90)"/><rect class="cls-1" x="177.6" y="234.84" width="17.17" height="17.17" transform="translate(341.05 57.24) rotate(90)"/><rect class="cls-1" x="229.1" y="183.33" width="17.17" height="17.17" transform="translate(341.05 -45.77) rotate(90)"/><rect class="cls-1" x="395.07" y="183.33" width="17.17" height="17.17" transform="translate(507.02 -211.73) rotate(90)"/><rect class="cls-1" x="211.94" y="200.5" width="17.17" height="17.17" transform="translate(341.05 -11.43) rotate(90)"/><rect class="cls-1" x="343.56" y="269.18" width="17.17" height="17.17" transform="translate(541.35 -74.38) rotate(90)"/><rect class="cls-1" x="369.31" y="209.09" width="34.34" height="17.17" transform="translate(515.6 -168.81) rotate(90)"/><rect class="cls-1" x="126.09" y="448.49" width="17.17" height="17.17" transform="translate(503.2 322.4) rotate(90)"/><rect class="cls-1" x="100.34" y="474.25" width="34.34" height="17.17" transform="translate(511.79 365.32) rotate(90)"/><rect class="cls-1" x="343.56" y="448.49" width="17.17" height="17.17" transform="translate(720.67 104.93) rotate(90)"/><rect class="cls-1" x="317.81" y="474.25" width="34.34" height="17.17" transform="translate(729.26 147.85) rotate(90)"/><rect class="cls-1" x="352.15" y="243.42" width="34.34" height="17.17" transform="translate(532.77 -117.31) rotate(90)"/><polygon class="cls-1" points="157.72 183.33 306.51 183.33 306.51 200.5 289.35 200.5 289.35 234.84 272.18 234.84 272.18 269.18 255.01 269.18 255.01 286.35 71.88 286.35 71.88 269.18 89.05 269.18 89.05 252.01 106.21 252.01 106.21 234.84 123.38 234.84 123.38 217.67 140.55 217.67 140.55 200.5 157.72 200.5 157.72 183.33"/><rect class="cls-2" x="137.04" y="166.67" width="66.67" height="66.67"/><rect class="cls-3" x="83.33" y="16.67" width="53.7" height="16.67"/><rect class="cls-3" x="83.33" width="53.7" height="16.67"/><rect class="cls-3" x="200.59" y="91.67" width="100" height="16.67" transform="translate(262.04 -150.59) rotate(90)"/><rect class="cls-3" x="217.26" y="91.67" width="100" height="16.67" transform="translate(278.7 -167.26) rotate(90)"/><rect class="cls-3" x="80.22" y="91.67" width="100" height="16.67" transform="translate(141.67 -30.22) rotate(90)"/><rect class="cls-3" x="46.89" y="308.33" width="166.67" height="16.67" transform="translate(358.33 186.45) rotate(90)"/><rect class="cls-3" x="96.89" y="91.67" width="100" height="16.67" transform="translate(158.33 -46.89) rotate(90)"/><rect class="cls-3" x="217.26" y="275" width="66.67" height="16.67" transform="translate(445.37 32.74) rotate(90)"/><rect class="cls-3" x="233.92" y="275" width="66.67" height="16.67" transform="translate(462.04 16.08) rotate(90)"/><rect class="cls-3" x="270.03" y="294.44" width="64.82" height="16.67" transform="translate(516.67 0.34) rotate(90)"/><rect class="cls-3" x="286.7" y="294.44" width="64.82" height="16.67" transform="translate(533.33 -16.33) rotate(90)"/><rect class="cls-3" x="253.37" y="359.26" width="64.82" height="16.67" transform="translate(564.81 81.82) rotate(90)"/><rect class="cls-3" x="270.03" y="359.26" width="64.82" height="16.67" transform="translate(581.48 65.15) rotate(90)"/><rect class="cls-3" x="151.52" y="275.93" width="64.82" height="16.67" transform="translate(379.63 100.34) rotate(90)"/><rect class="cls-3" x="159.85" y="267.59" width="81.48" height="16.67" transform="translate(387.96 75.34) rotate(90)"/><rect class="cls-3" x="188.55" y="433.33" width="55.56" height="16.67" transform="translate(344.11 883.33) rotate(180)"/><rect class="cls-3" x="188.55" y="450" width="55.56" height="16.67" transform="translate(344.11 916.67) rotate(180)"/><rect class="cls-3" x="63.55" y="308.33" width="166.67" height="16.67" transform="translate(375 169.78) rotate(90)"/><rect class="cls-3" x="137.04" y="33.33" width="16.67" height="16.67"/><rect class="cls-3" x="137.04" y="16.67" width="16.67" height="16.67"/><rect class="cls-3" x="153.7" y="33.33" width="16.67" height="16.67"/><rect class="cls-3" x="138.55" y="33.33" width="16.67" height="16.67" transform="translate(16.67 188.55) rotate(-90)"/><rect class="cls-3" x="155.22" y="16.67" width="16.67" height="16.67" transform="translate(50 188.55) rotate(-90)"/><rect class="cls-3" x="66.67" y="33.33" width="16.67" height="16.67"/><rect class="cls-4" x="16.67" y="150" width="16.67" height="16.67"/><rect class="cls-4" y="116.67" width="16.67" height="16.67"/><rect class="cls-4" x="16.67" y="200" width="16.67" height="16.67"/><rect class="cls-4" x="66.67" y="200" width="16.67" height="16.67"/><rect class="cls-4" x="66.67" y="150" width="16.67" height="16.67"/><rect class="cls-3" x="103.7" y="316.67" width="16.67" height="16.67"/><rect class="cls-3" x="137.04" y="316.67" width="16.67" height="16.67"/><rect class="cls-3" x="222.22" y="253.7" width="16.67" height="16.67"/><rect class="cls-3" x="238.89" y="253.7" width="16.67" height="16.67"/><rect class="cls-3" x="120.37" y="333.33" width="16.67" height="16.67"/><rect class="cls-3" x="153.7" y="316.67" width="16.67" height="16.67"/><rect class="cls-3" x="137.04" y="333.33" width="16.67" height="16.67"/><rect class="cls-3" x="87.04" y="316.67" width="16.67" height="16.67"/><rect class="cls-3" x="103.7" y="333.33" width="16.67" height="16.67"/><rect class="cls-3" x="120.37" y="350" width="16.67" height="16.67"/><rect class="cls-3" x="66.67" y="400" width="16.67" height="16.67"/><rect class="cls-3" x="83.33" y="416.67" width="16.67" height="16.67"/><rect class="cls-3" x="50" y="400" width="16.67" height="16.67"/><rect class="cls-3" x="66.67" y="416.67" width="16.67" height="16.67"/><rect class="cls-3" x="83.33" y="433.33" width="16.67" height="16.67"/><rect class="cls-3" x="260.77" y="400" width="16.67" height="16.67" transform="translate(588.89 139.23) rotate(90)"/><rect class="cls-3" x="244.11" y="416.67" width="16.67" height="16.67" transform="translate(588.89 172.56) rotate(90)"/><rect class="cls-3" x="260.77" y="416.67" width="16.67" height="16.67" transform="translate(605.56 155.89) rotate(90)"/><rect class="cls-3" x="277.44" y="400" width="16.67" height="16.67" transform="translate(605.56 122.56) rotate(90)"/><rect class="cls-3" x="244.11" y="433.33" width="16.67" height="16.67" transform="translate(605.56 189.23) rotate(90)"/><rect class="cls-4" x="33.33" y="166.67" width="33.33" height="33.33"/><rect class="cls-4" x="83.33" y="166.67" width="16.67" height="33.33"/><rect class="cls-4" y="166.67" width="16.67" height="33.33"/><rect class="cls-4" x="130.22" y="208.33" width="16.67" height="33.33" transform="translate(275 86.45) rotate(90)"/><rect class="cls-4" x="130.22" y="125" width="16.67" height="33.33" transform="translate(191.67 3.11) rotate(90)"/><rect class="cls-4" x="113.55" y="91.67" width="16.67" height="33.33" transform="translate(141.67 -13.55) rotate(90)"/><rect class="cls-4" x="149.66" y="72.22" width="16.67" height="38.89" transform="translate(161.11 -66.33) rotate(90)"/><rect class="cls-4" x="292.26" y="133.33" width="16.67" height="16.67" transform="translate(512.63 283.33) rotate(-180)"/><rect class="cls-4" x="267.26" y="108.33" width="16.67" height="33.33" transform="translate(312.04 -150.59) rotate(90)"/><rect class="cls-4" x="231.15" y="88.89" width="16.67" height="38.89" transform="translate(259.26 -131.15) rotate(90)"/><rect class="cls-4" x="137.04" y="166.67" width="16.67" height="16.67"/><rect class="cls-4" x="137.04" y="216.67" width="16.67" height="16.67"/><rect class="cls-4" x="187.04" y="216.67" width="16.67" height="16.67"/><rect class="cls-4" x="187.04" y="166.67" width="16.67" height="16.67"/><rect class="cls-4" x="153.7" y="183.33" width="33.33" height="33.33"/><rect class="cls-4" x="203.7" y="183.33" width="16.67" height="33.33"/><rect class="cls-4" x="120.37" y="183.33" width="16.67" height="33.33"/><rect class="cls-4" x="250.59" y="225" width="16.67" height="33.33" transform="translate(412.04 -17.26) rotate(90)"/><rect class="cls-4" x="250.59" y="141.67" width="16.67" height="33.33" transform="translate(328.7 -100.59) rotate(90)"/></svg>