<svg id="Calque_1" data-name="Calque 1" xmlns="http://www.w3.org/2000/svg" viewBox="0 0 1920 1080"><defs><style>.cls-1{fill:#ffed66;}.cls-2{fill:#3679bd;}.cls-3{fill:#444;}.cls-4{fill:#fff;}</style></defs><title>bibliotheque</title><path class="cls-1" d="M1695,576.22c-.9-74.21-61.37-130.47-136.58-131.44-74.83-1-136.48,57.37-139.91,131.09l-33.83,0V792.71l342.26-.43.44-216Z"/><path class="cls-2" d="M1162.89,309.5c0,76.76-63.22,139-140,139a139,139,0,0,1,0-278C1099.67,170.5,1162.89,232.73,1162.89,309.5Z"/><path class="cls-2" d="M1662.38,365.15c0,59.12-48.69,107.05-107.81,107.05a107.05,107.05,0,0,1,0-214.1C1613.69,258.1,1662.38,306,1662.38,365.15Z"/><path class="cls-2" d="M271.4,396.49v-.1h0a88.11,88.11,0,0,1,87.9-87.8l.11,87.91h0v.1h0a88.11,88.11,0,0,1-87.9,87.8l-.11-87.91h0Z"/><path class="cls-2" d="M521.83,396.5v.1h0a88.11,88.11,0,0,0,87.9,87.8l.11-87.91h0v-.11h0a88.11,88.11,0,0,0-87.9-87.8l-.11,87.91h0Z"/><path class="cls-1" d="M573.43,576.22c-.9-74.21-61.37-130.47-136.58-131.44-74.83-1-136.48,57.37-139.91,131.09l-33.83,0V792.71l342.26-.43.44-216Z"/><path class="cls-3" d="M399.72,438.89v13.87h0a42.34,42.34,0,0,0,84.67,0h0V438.89Z"/><path class="cls-1" d="M262.59,586.75A69.53,69.53,0,0,1,332,517.47l.09,69.37h0v.08h0c0,1.26,0,2.52-.12,3.77v67.74H262.59V589.09h0v-2.25h0v-.08Z"/><path class="cls-1" d="M606.33,586.75A69.53,69.53,0,0,0,537,517.47l-.09,69.37h0v.08h0c0,1.26,0,2.52.12,3.77v67.74h69.34V589.09h0v-2.25h0v-.08Z"/><polygon id="rect2993-7" class="cls-2" points="419.58 931.08 449.52 931.08 449.57 738.48 419.53 738.48 419.58 931.08"/><polygon id="rect2993-7-2" data-name="rect2993-7" class="cls-4" points="440.7 724.79 448.61 732.95 561.72 623.29 553.78 615.11 440.7 724.79"/><polygon id="rect2993-7-3" data-name="rect2993-7" class="cls-4" points="428.95 725.93 421.04 734.09 307.93 624.44 315.86 616.25 428.95 725.93"/><polygon class="cls-3" points="419.64 931.08 303.91 816.79 303.91 738.44 303.91 625.7 419.64 738.48 419.64 738.48 419.64 931.08"/><polygon class="cls-3" points="449.28 931.08 565.01 816.79 565.01 738.44 565.01 625.7 449.28 738.48 449.28 738.48 449.28 931.08"/><path class="cls-2" d="M330,816.28v.07h0a57.49,57.49,0,0,1-57.36,57.29l-.07-57.36h0v-.07h0a57.49,57.49,0,0,1,57.36-57.29l.07,57.36h0Z"/><path class="cls-2" d="M538.91,816.28v.07h0a57.49,57.49,0,0,0,57.36,57.29l.07-57.36h0v-.07h0A57.49,57.49,0,0,0,539,758.91l-.07,57.36h0Z"/><path class="cls-2" d="M526.56,286.58c0-.4,0-.79,0-1.2,0-1.17.09-2.33,0-3.48-2.47-42.81-38.62-76.81-82-76.81a85.68,85.68,0,0,0-60,24.9l-.07.07C369.67,244.72,359,264.63,359,286.58v1.05h0v80.42c2.88-40.88,35.08-73.94,74.79-80.42h9.93a87.92,87.92,0,0,1,82.83,81.48V287.64c0-.36,0-.71,0-1.06Z"/><path class="cls-2" d="M1638.71,286.58c0-.4,0-.79,0-1.2,0-1.17.09-2.33,0-3.48-2.47-42.81-38.62-76.81-82-76.81a85.68,85.68,0,0,0-60,24.9l-.07.07c-14.77,14.65-25.44,34.56-25.44,56.51v1.05h0v80.42c2.88-40.88,35.08-73.94,74.79-80.42h9.93a87.92,87.92,0,0,1,82.83,81.48V287.64c0-.36,0-.71,0-1.06Z"/><path class="cls-3" d="M526.56,369.12c0,46.1-38,83.48-84.07,83.48a83.48,83.48,0,0,1,0-167C488.59,285.65,526.56,323,526.56,369.12Z"/><path class="cls-1" d="M1162.37,576.22c-.9-74.21-61.37-130.47-136.58-131.44-74.83-1-136.48,57.37-139.91,131.09l-33.83,0V792.71l342.26-.43.44-216Z"/><path class="cls-3" d="M981,438.89v13.87h0a42.34,42.34,0,0,0,84.67,0h0V438.89Z"/><path class="cls-1" d="M851.53,586.75a69.53,69.53,0,0,1,69.37-69.29l.09,69.37h0v.08h0c0,1.26,0,2.52-.12,3.77v67.74H851.53V589.09h0v-2.25h0v-.08Z"/><path class="cls-1" d="M1195.27,586.75a69.53,69.53,0,0,0-69.37-69.29l-.09,69.37h0v.08h0c0,1.26,0,2.52.12,3.77v67.74h69.34V589.09h0v-2.25h0v-.08Z"/><polygon id="rect2993-7-4" data-name="rect2993-7" class="cls-2" points="1008.52 931.08 1038.46 931.08 1038.52 738.48 1008.47 738.48 1008.52 931.08"/><polygon id="rect2993-7-5" data-name="rect2993-7" class="cls-4" points="1029.64 724.79 1037.55 732.95 1150.66 623.29 1142.72 615.11 1029.64 724.79"/><polygon id="rect2993-7-6" data-name="rect2993-7" class="cls-4" points="1017.89 725.93 1009.98 734.09 896.87 624.44 904.8 616.25 1017.89 725.93"/><polygon class="cls-3" points="1008.59 931.08 892.86 816.79 892.86 738.44 892.86 625.7 1008.59 738.48 1008.59 738.48 1008.59 931.08"/><polygon class="cls-3" points="1038.22 931.08 1153.95 816.79 1153.95 738.44 1153.95 625.7 1038.22 738.48 1038.22 738.48 1038.22 931.08"/><path class="cls-2" d="M919,816.28v.07h0a57.49,57.49,0,0,1-57.36,57.29l-.07-57.36h0v-.07h0a57.49,57.49,0,0,1,57.36-57.29l.07,57.36h0Z"/><path class="cls-2" d="M1127.85,816.28v.07h0a57.49,57.49,0,0,0,57.36,57.29l.07-57.36h0v-.07h0a57.49,57.49,0,0,0-57.36-57.29l-.07,57.36h0Z"/><path class="cls-3" d="M1107.18,369.12c0,46.1-38,83.48-84.07,83.48a83.48,83.48,0,0,1,0-167C1069.21,285.65,1107.18,323,1107.18,369.12Z"/><path class="cls-3" d="M1513.69,438.89v13.87h0a42.34,42.34,0,0,0,84.67,0h0V438.89Z"/><path class="cls-1" d="M1384.2,586.75a69.53,69.53,0,0,1,69.37-69.29l.09,69.37h0v.08h0c0,1.26,0,2.52-.12,3.77v67.74H1384.2V589.09h0v-2.25h0v-.08Z"/><path class="cls-1" d="M1727.93,586.75a69.53,69.53,0,0,0-69.37-69.29l-.09,69.37h0v.08h0c0,1.26,0,2.52.12,3.77v67.74h69.34V589.09h0v-2.25h0v-.08Z"/><polygon id="rect2993-7-7" data-name="rect2993-7" class="cls-2" points="1541.18 931.08 1571.13 931.08 1571.18 738.48 1541.13 738.48 1541.18 931.08"/><polygon id="rect2993-7-8" data-name="rect2993-7" class="cls-4" points="1562.3 724.79 1570.21 732.95 1683.32 623.29 1675.39 615.11 1562.3 724.79"/><polygon id="rect2993-7-9" data-name="rect2993-7" class="cls-4" points="1550.55 725.93 1542.64 734.09 1429.53 624.44 1437.47 616.25 1550.55 725.93"/><polygon class="cls-3" points="1541.25 931.08 1425.52 816.79 1425.52 738.44 1425.52 625.7 1541.25 738.48 1541.25 738.48 1541.25 931.08"/><polygon class="cls-3" points="1570.88 931.08 1686.61 816.79 1686.61 738.44 1686.61 625.7 1570.88 738.48 1570.88 738.48 1570.88 931.08"/><path class="cls-2" d="M1451.62,816.28v.07h0a57.49,57.49,0,0,1-57.36,57.29l-.07-57.36h0v-.07h0a57.49,57.49,0,0,1,57.36-57.29l.07,57.36h0Z"/><path class="cls-2" d="M1660.52,816.28v.07h0a57.49,57.49,0,0,0,57.36,57.29l.07-57.36h0v-.07h0a57.49,57.49,0,0,0-57.36-57.29l-.07,57.36h0Z"/><path class="cls-3" d="M1638.73,369.12c0,46.1-38,83.48-84.07,83.48a83.48,83.48,0,0,1,0-167C1600.76,285.65,1638.73,323,1638.73,369.12Z"/><path class="cls-2" d="M1638.71,475.45c0,.4,0,.79,0,1.2,0,1.17.09,2.33,0,3.48-2.47,42.81-38.62,76.81-82,76.81a85.68,85.68,0,0,1-60-24.9l-.07-.07c-14.77-14.65-25.44-34.56-25.44-56.51V474.4h0V394c2.88,40.88,35.08,73.94,74.79,80.42h9.93a87.92,87.92,0,0,0,82.83-81.48v81.48c0,.36,0,.71,0,1.06Z"/></svg>