<svg id="Calque_1" data-name="Calque 1" xmlns="http://www.w3.org/2000/svg" viewBox="0 0 1920 1080"><defs><style>.cls-1{fill:#444;}.cls-2{fill:#ffed66;}.cls-3{fill:#3679bd;}.cls-4{fill:#fff;}</style></defs><title>bibliotheque</title><rect class="cls-1" x="-15.58" y="-10" width="1944.29" height="1100"/><path class="cls-2" d="M1750.08,531.78c-1-81.2-67.16-142.76-149.45-143.82-81.88-1.05-149.34,62.78-153.09,143.44l-37,0V768.66l374.51-.47.48-236.36Z"/><path class="cls-3" d="M1167.8,239.93c0,84-69.18,152.09-153.17,152.09a152.09,152.09,0,0,1,0-304.18C1098.63,87.84,1167.8,155.93,1167.8,239.93Z"/><path class="cls-3" d="M1714.36,300.82c0,64.69-53.28,117.14-118,117.14a117.14,117.14,0,0,1,0-234.27C1661.08,183.68,1714.36,236.13,1714.36,300.82Z"/><path class="cls-3" d="M192.31,335.12V335h0a96.41,96.41,0,0,1,96.19-96.07l.12,96.19h0v.11h0a96.41,96.41,0,0,1-96.19,96.07l-.12-96.19h0Z"/><path class="cls-3" d="M466.34,335.13v.11h0a96.41,96.41,0,0,0,96.19,96.07l.12-96.19h0V335h0a96.41,96.41,0,0,0-96.19-96.07l-.12,96.19h0Z"/><path class="cls-2" d="M522.8,531.78c-1-81.2-67.16-142.76-149.45-143.82C291.47,386.91,224,450.74,220.26,531.4l-37,0V768.66l374.51-.47.48-236.36Z"/><path class="cls-4" d="M332.72,381.51v15.17h0a46.33,46.33,0,0,0,92.65,0h0V381.51Z"/><path class="cls-2" d="M182.68,543.31a76.08,76.08,0,0,1,75.91-75.81l.09,75.91h0v.09h0c0,1.38-.05,2.76-.13,4.12v74.12H182.67V545.86h0V543.4h0v-.09Z"/><path class="cls-2" d="M558.8,543.31a76.08,76.08,0,0,0-75.91-75.81l-.09,75.91h0v.09h0c0,1.38.05,2.76.13,4.12v74.12H558.8V545.86h0V543.4h0v-.09Z"/><polygon id="rect2993-7" class="cls-3" points="354.45 920.07 387.22 920.07 387.27 709.32 354.4 709.32 354.45 920.07"/><polygon id="rect2993-7-2" data-name="rect2993-7" class="cls-4" points="377.56 694.35 386.22 703.28 509.99 583.29 501.3 574.33 377.56 694.35"/><polygon id="rect2993-7-3" data-name="rect2993-7" class="cls-4" points="364.7 695.6 356.05 704.53 232.28 584.54 240.97 575.58 364.7 695.6"/><polygon class="cls-1" points="354.53 920.07 227.89 795.01 227.89 709.28 227.89 585.92 354.53 709.32 354.53 709.32 354.53 920.07"/><polygon class="cls-1" points="386.95 920.07 513.59 795.01 513.59 709.28 513.59 585.92 386.95 709.32 386.95 709.32 386.95 920.07"/><path class="cls-4" d="M256.45,794.46v.07h0a62.91,62.91,0,0,1-62.76,62.69l-.08-62.77h0v-.07h0a62.91,62.91,0,0,1,62.76-62.69l.08,62.76h0Z"/><path class="cls-4" d="M485,794.46v.07h0a62.91,62.91,0,0,0,62.76,62.69l.08-62.77h0v-.07h0a62.91,62.91,0,0,0-62.76-62.69L485,794.45h0Z"/><path class="cls-3" d="M471.51,214.85c0-.44,0-.87,0-1.31,0-1.28.09-2.54,0-3.81-2.71-46.85-42.26-84-89.78-84a93.75,93.75,0,0,0-65.65,27.24L316,153c-16.16,16-27.83,37.82-27.83,61.84V216h0v88c3.15-44.73,38.38-80.91,81.83-88h10.87a96.21,96.21,0,0,1,90.63,89.16V216c0-.39,0-.77,0-1.16Z"/><path class="cls-3" d="M1688.45,214.85c0-.44,0-.87,0-1.31,0-1.28.09-2.54,0-3.81-2.71-46.85-42.26-84-89.78-84A93.75,93.75,0,0,0,1533,152.94l-.08.08c-16.16,16-27.83,37.82-27.83,61.84V216h0v88c3.15-44.73,38.38-80.91,81.83-88h10.87a96.21,96.21,0,0,1,90.63,89.16V216c0-.39,0-.77,0-1.16Z"/><path class="cls-4" d="M471.51,305.17c0,50.45-41.55,91.34-92,91.34a91.34,91.34,0,0,1,0-182.68C430,213.83,471.51,254.72,471.51,305.17Z"/><path class="cls-2" d="M1167.23,531.78c-1-81.2-67.16-142.76-149.45-143.82-81.88-1.05-149.34,62.78-153.09,143.44l-37,0V768.66l374.51-.47.48-236.36Z"/><path class="cls-4" d="M968.81,381.51v15.17h0a46.33,46.33,0,0,0,92.65,0h0V381.51Z"/><path class="cls-2" d="M827.11,543.31A76.08,76.08,0,0,1,903,467.49l.09,75.91h0v.09h0c0,1.38-.05,2.76-.13,4.12v74.12H827.11V545.86h0V543.4h0v-.09Z"/><path class="cls-2" d="M1203.23,543.31a76.08,76.08,0,0,0-75.91-75.81l-.09,75.91h0v.09h0c0,1.38.05,2.76.13,4.12v74.12h75.87V545.86h0V543.4h0v-.09Z"/><polygon id="rect2993-7-4" data-name="rect2993-7" class="cls-3" points="998.89 920.07 1031.65 920.07 1031.71 709.32 998.83 709.32 998.89 920.07"/><polygon id="rect2993-7-5" data-name="rect2993-7" class="cls-4" points="1022 694.35 1030.65 703.28 1154.42 583.29 1145.73 574.33 1022 694.35"/><polygon id="rect2993-7-6" data-name="rect2993-7" class="cls-4" points="1009.14 695.6 1000.48 704.53 876.72 584.54 885.4 575.58 1009.14 695.6"/><polygon class="cls-1" points="998.96 920.07 872.32 795.01 872.32 709.28 872.32 585.92 998.96 709.32 998.96 709.32 998.96 920.07"/><polygon class="cls-1" points="1031.38 920.07 1158.02 795.01 1158.02 709.28 1158.02 585.92 1031.38 709.32 1031.38 709.32 1031.38 920.07"/><path class="cls-4" d="M900.88,794.46v.07h0a62.91,62.91,0,0,1-62.76,62.69L838,794.45h0v-.07h0a62.91,62.91,0,0,1,62.76-62.69l.08,62.76h0Z"/><path class="cls-4" d="M1129.46,794.46v.07h0a62.91,62.91,0,0,0,62.76,62.69l.08-62.77h0v-.07h0a62.91,62.91,0,0,0-62.76-62.69l-.08,62.76h0Z"/><path class="cls-4" d="M1106.84,305.17c0,50.45-41.55,91.34-92,91.34a91.34,91.34,0,0,1,0-182.68C1065.29,213.83,1106.84,254.72,1106.84,305.17Z"/><path class="cls-4" d="M1551.66,381.51v15.17h0a46.33,46.33,0,0,0,92.65,0h0V381.51Z"/><path class="cls-2" d="M1410,543.31a76.08,76.08,0,0,1,75.91-75.81l.09,75.91h0v.09h0c0,1.38-.05,2.76-.13,4.12v74.12H1410V545.86h0V543.4h0v-.09Z"/><path class="cls-2" d="M1786.08,543.31a76.08,76.08,0,0,0-75.91-75.81l-.09,75.91h0v.09h0c0,1.38.05,2.76.13,4.12v74.12h75.87V545.86h0V543.4h0v-.09Z"/><polygon id="rect2993-7-7" data-name="rect2993-7" class="cls-3" points="1581.74 920.07 1614.5 920.07 1614.56 709.32 1581.68 709.32 1581.74 920.07"/><polygon id="rect2993-7-8" data-name="rect2993-7" class="cls-4" points="1604.85 694.35 1613.5 703.28 1737.27 583.29 1728.59 574.33 1604.85 694.35"/><polygon id="rect2993-7-9" data-name="rect2993-7" class="cls-4" points="1591.99 695.6 1583.33 704.53 1459.57 584.54 1468.25 575.58 1591.99 695.6"/><polygon class="cls-1" points="1581.81 920.07 1455.17 795.01 1455.17 709.28 1455.17 585.92 1581.81 709.32 1581.81 709.32 1581.81 920.07"/><polygon class="cls-1" points="1614.23 920.07 1740.87 795.01 1740.87 709.28 1740.87 585.92 1614.23 709.32 1614.23 709.32 1614.23 920.07"/><path class="cls-4" d="M1483.73,794.46v.07h0A62.91,62.91,0,0,1,1421,857.22l-.08-62.77h0v-.07h0a62.91,62.91,0,0,1,62.76-62.69l.08,62.76h0Z"/><path class="cls-4" d="M1712.31,794.46v.07h0a62.91,62.91,0,0,0,62.76,62.69l.08-62.77h0v-.07h0a62.91,62.91,0,0,0-62.76-62.69l-.08,62.76h0Z"/><path class="cls-4" d="M1688.47,305.17c0,50.45-41.55,91.34-92,91.34a91.34,91.34,0,1,1,0-182.68C1646.92,213.83,1688.47,254.72,1688.47,305.17Z"/><path class="cls-3" d="M1688.45,422.8c0,.44,0,.87,0,1.31,0,1.28.09,2.54,0,3.81-2.71,46.85-42.26,84-89.78,84A93.75,93.75,0,0,1,1533,484.71l-.08-.08c-16.16-16-27.83-37.82-27.83-61.84v-1.15h0v-88c3.15,44.73,38.38,80.91,81.83,88h10.87a96.21,96.21,0,0,0,90.63-89.16v89.16c0,.39,0,.77,0,1.16Z"/></svg>